<svg width="21" height="20" viewBox="0 0 21 20" fill="none" xmlns="http://www.w3.org/2000/svg">
<g id="mdi:hide">
<path id="Vector" d="M10.3585 7.5L13.0002 10.1333V10C13.0002 9.33696 12.7368 8.70107 12.2679 8.23223C11.7991 7.76339 11.1632 7.5 10.5002 7.5H10.3585ZM6.77516 8.16667L8.06683 9.45833C8.02516 9.63333 8.00016 9.80833 8.00016 10C8.00016 10.663 8.26356 11.2989 8.7324 11.7678C9.20124 12.2366 9.83712 12.5 10.5002 12.5C10.6835 12.5 10.8668 12.475 11.0418 12.4333L12.3335 13.725C11.7752 14 11.1585 14.1667 10.5002 14.1667C9.39509 14.1667 8.33529 13.7277 7.55388 12.9463C6.77248 12.1649 6.3335 11.1051 6.3335 10C6.3335 9.34167 6.50016 8.725 6.77516 8.16667ZM2.16683 3.55833L4.06683 5.45833L4.44183 5.83333C3.06683 6.91667 1.9835 8.33333 1.3335 10C2.77516 13.6583 6.3335 16.25 10.5002 16.25C11.7918 16.25 13.0252 16 14.1502 15.55L14.5085 15.9L16.9418 18.3333L18.0002 17.275L3.22516 2.5M10.5002 5.83333C11.6052 5.83333 12.665 6.27232 13.4464 7.05372C14.2278 7.83512 14.6668 8.89493 14.6668 10C14.6668 10.5333 14.5585 11.05 14.3668 11.5167L16.8085 13.9583C18.0585 12.9167 19.0585 11.55 19.6668 10C18.2252 6.34167 14.6668 3.75 10.5002 3.75C9.3335 3.75 8.21683 3.95833 7.16683 4.33333L8.97516 6.125C9.45016 5.94167 9.9585 5.83333 10.5002 5.83333Z" fill="#181738"/>
</g>
</svg>
