<svg width="32" height="32" viewBox="0 0 32 32" fill="none" xmlns="http://www.w3.org/2000/svg">
<path d="M28 25.3333L21.128 18.4613C22.3985 16.5305 22.9073 14.197 22.5561 11.9126C22.2048 9.62817 21.0184 7.55534 19.2266 6.09542C17.4347 4.63549 15.165 3.89234 12.8567 4.00983C10.5484 4.12733 8.3658 5.09712 6.73148 6.73144C5.09716 8.36575 4.12737 10.5483 4.00988 12.8566C3.89238 15.1649 4.63554 17.4347 6.09546 19.2265C7.55538 21.0183 9.62822 22.2047 11.9126 22.556C14.1971 22.9073 16.5306 22.3984 18.4614 21.128L25.3334 28L28 25.3333ZM6.66672 13.3333C6.66672 9.65734 9.65738 6.66667 13.3334 6.66667C17.0094 6.66667 20 9.65734 20 13.3333C20 17.0093 17.0094 20 13.3334 20C9.65738 20 6.66672 17.0093 6.66672 13.3333Z" fill="white"/>
</svg>
